<svg xmlns="http://www.w3.org/2000/svg" width="192.068" height="143.773" viewBox="0 0 192.068 143.773">
  <g id="Warstwa_2" data-name="Warstwa 2" transform="translate(55.5 -37.5)">
    <g id="Warstwa_1" data-name="Warstwa 1" transform="translate(-53.502 39.5)">
      <circle id="Ellipse_2" data-name="Ellipse 2" cx="61.714" cy="61.714" r="61.714" transform="translate(33.219 16.345)" stroke-width="4" stroke="#000" stroke-linecap="round" stroke-linejoin="bevel" stroke-miterlimit="10" fill="none"/>
      <path id="Path_75" data-name="Path 75" d="M35.053,9.962H11.845a15.271,15.271,0,0,0-6.129.838c-3.274,1.414-3.746,4.767-3.9,7.6C.45,49.673-.964,81.08,3.751,112.277a4.715,4.715,0,0,0,1.7,3.484,9.744,9.744,0,0,0,5.658.969l29.023-1.022" transform="translate(-0.498 14.766)" fill="none" stroke="#000" stroke-linecap="round" stroke-linejoin="bevel" stroke-miterlimit="10" stroke-width="4"/>
      <path id="Path_76" data-name="Path 76" d="M62.242,9.962H85.45a15.219,15.219,0,0,1,6.129.838c3.274,1.467,3.772,4.82,3.9,7.649,1.388,31.276,2.777,62.683-1.912,93.8a4.794,4.794,0,0,1-1.7,3.484,9.744,9.744,0,0,1-5.658.969l-29.05-1.022" transform="translate(91.262 14.765)" fill="none" stroke="#000" stroke-linecap="round" stroke-linejoin="bevel" stroke-miterlimit="10" stroke-width="4"/>
      <path id="Path_77" data-name="Path 77" d="M20.66,20.251,35.407.5H62.623" transform="translate(32.152 -0.5)" fill="none" stroke="#000" stroke-linecap="round" stroke-linejoin="bevel" stroke-miterlimit="10" stroke-width="4"/>
      <path id="Path_78" data-name="Path 78" d="M36.68.58l28,.079,14.25,19.227" transform="translate(58.095 -0.37)" fill="none" stroke="#000" stroke-linecap="round" stroke-linejoin="bevel" stroke-miterlimit="10" stroke-width="4"/>
      <path id="Path_79" data-name="Path 79" d="M3.24,11.266,7.667,5.11h8.173" transform="translate(3.942 6.966)" fill="none" stroke="#000" stroke-linecap="round" stroke-linejoin="bevel" stroke-miterlimit="10" stroke-width="4"/>
      <path id="Path_80" data-name="Path 80" d="M8.05,5.13l8.408.026,4.27,6" transform="translate(11.731 6.998)" fill="none" stroke="#000" stroke-linecap="round" stroke-linejoin="bevel" stroke-miterlimit="10" stroke-width="4"/>
    </g>
  </g>
</svg>
