<svg xmlns="http://www.w3.org/2000/svg" width="94.74" height="81.255" viewBox="0 0 94.74 81.255">
  <g id="Group_5" data-name="Group 5" transform="translate(-82.125 23.649)">
    <path id="path4" d="M126.607,146.651h1.643v4.3l-.212.212-.265.478-.159.743-1.007.69Zm-.027,7.1.734-.336.52.061.428.825v3.24l-.489.306-.52.856.7-.458.275.183v4.28l-1.253.183-.4-.428-.4-.092-.428.092-.306-.122a11.461,11.461,0,0,0-3.882-6.206l.367-.336.55-.122.764-.336,1.528.061,1.1-.978.7.367Zm-.825,9.69.7-.122.4.245v.917l.55,2.751-.306,1.5.092.275.489-1.8-.336-2.232.122-.948.764-.031v8.162h-1.559A37.6,37.6,0,0,0,125.754,163.445Zm-3.666-8.253.668-.347.569-.074.767.05.643-.1.347-.694a27.08,27.08,0,0,0-4.826-1.884l1.015,1.14.074.5.3.273.124.521Zm-1.039.5.47-.3-.223-.793-.05-.372-.347-.446-.074-.421-1.163-1.363a23.825,23.825,0,0,0-4.257-.694l-.569.4-.173.4-.421.4-.99.223-.594.4-.817.149-1.757-.223-.718.1-.47-.322-.569-.05-1.188.174a13.724,13.724,0,0,0-5.049,4.685l.371.4v.223l.223.694.347.545v.471l.247.347.718-.248.792-.62h.4l.594-.223c1.989-5.417,9.727-7.077,15.27-3.52ZM108.5,152.366l.743.05.4.322.718.05,1.46.223.644-.124.47-.446,1.015-.273.2-.372.272-.5a17.121,17.121,0,0,0-5.915,1.066Zm-6.968,6.3.373.343.093.561.373.4.156.654.342.561v2.679l-.684.935.187.81-.155,1.5.28,1.4,1.089.748.156-.093-.964-.779-.28-1.4.187-1.4-.093-.685.716-.5,1.244.249.466-.187c.458,3.806,4.134,7,10.234,9.721l-1.213.28-.435.561-.716.156-1.275-.187-1.275.187-2.426-.561-.622.312-1.338.218-.9.561c-5.107-3.631-6.04-10.895-3.515-17.043Zm3.422,5.3-.4.187-1.182-.187-.062-.81.031-1,.124-.872.84-.312.9.062a8.77,8.77,0,0,0-.249,2.929Zm.677,12.113.777-.519.984-.207.673-.311,2.329.467,1.191-.156,1.191.207,1.191,1.918,1.4.778.1.726,2.744.83.311.726,1.4,1.192.673,1.193,1.139.467.414,1.193c-5.809-3.044-11.624-5.493-16.513-8.5Zm17.134,8.815-.362-1.659-1.087-.622-.569-.985-.207-.674-1.242-.985-.259-.83-1.657-.467-.828-.1-.1-.778-1.087-.518-.725-.985.207-.57,1.139-.259,1.812-.1c7.954,3.663,15.8,6.9,20.81,10.215l-1.035,1.452.052.83-.932,2.385.518,1.763-.777,1.607c-3.423-3.433-8.173-6.246-13.666-8.711Zm14.082,9.147.645-1.374,2.5-1.777,4.517,2.262,2.823.162c8.067,10.824,4.969,20.772-3.549,27.55l-1.21-.566-1.855.162-.323-.243-.968.081L138.3,219.4l-.323-1.131-.968-.808h-2.1l-1.048-.566C143.488,210.406,143.918,201.654,136.847,194.033Zm.907-2.23-.517-1.6.423-1.106.681-.753.047-1.012,1.292-.988a48.431,48.431,0,0,1,6.179,5.271l-.212.682-1.034.141-2-.894-1.668-.918-.916-.612-.564.659Zm-5.7,26.135-.381,1.567-1.058.593-.932.847-.042.381-.8.72-.085.677-1.567.762-.212,1.016v.169l-.423.72-.508.72-.169.889-1.355.72c-15.369.912-28.059-1.45-37.016-8.375l.62-.7h.824l.618-.516.928.31,1.546-.516.206-.516h1.237l1.237-.723h1.34C108.8,222.028,125.406,222.138,132.058,217.938Zm-6.547,9.7,1.2-.626.1-.819.962-1.2.144-.916,1.395-.675.241-.819.77-.385.77-.964.673-.144.866-.578.385-.915.577-.867h.722l.866.193.625.626.1.867.721.867.048.723.577.578,1.01.626,1.154.289a40.126,40.126,0,0,1-13.9,4.143ZM86.618,218.47l.88-.645,1.056-.059.821-.469-.176-1.584-1.642-1.232H85.562l-1.173-1.7-.176-1.408-1.7-2.756v-.587l-.938-1.642.587-3.695.117.352-.41,3.284.938,1.642v.645l1.642,2.463,1.408-1.349.235-1.466.117.41-.176,1.29-1.466,1.583.176,1.056,1.114,1.349h1.818l1.935,1.173.528,2.346.586.059.7-.235.411-.645,1.114-.059.469-.7.938-.293c-12.112-8.269-9.9-20.86-.469-24.69l.418-1.266-.309-.31.1-.929,1.649-.826,1.752-.413.1-1.136,1.34-.723c-20.59.266-25.413,20.574-12.328,33.167Zm7.935-16.882q1.715,3.086,6.778,6.063l.111-.67-.251-.335-.112-.559.084-.363a22.613,22.613,0,0,1-4.919-3.87l-.422.032-.88-.632Zm7.809,5.163-.385.255-.031.489.16.585a45.675,45.675,0,0,0,7.613,2.982l.57-.18.192-.288.352-.032.384-.192.8-.032.32-.288.16-.48A34.57,34.57,0,0,1,103.721,207Zm8.017,4.556.563-.251,1.127-.251,1.064.063.751-1.128c6.767.11,9.526-2.659,7.448-8.9l1.5-.69.626.125.688.125.751-.188,1.607.263,1.647-.577c4.37,10.192-1.068,15.725-17.774,11.41Zm17.309-12.119-1.047.609-1.52-.1-.878.2-1.52-.169-.135-.575.135-.575-.338-.846.135-.541-.338-.744.236-.676-.068-.3.405-1.353a21.9,21.9,0,0,1,4.931,5.074ZM94.261,190.8l.46-1.184-.263-.461.1-.461L95.8,188.2l1.543-.263.953.362,1.478-.066.953.658,2.857.263.033-.132-2.791-.329-.821-.691-1.478-.033-.526-.362.066-.658.46-.428.821-.559,1.314-.165,1.117-.263c5.278.326,11.866,2.8,20.034,7.862l-.23.921.1.526-.1.559.1.428-.1.79.3.428.033.658-.854.329-.033.2.952-.165.3.757-.263.395.1.461-.493.428-.821-.132c-4.247-7.068-18.492-12.188-26.537-9.178Z" transform="translate(11.451 -170.3)" fill-rule="evenodd"/>
    <path id="path28" d="M166.473,157.782v2.735c-.195.043-.393.076-.594.1a4.719,4.719,0,0,1-.6.036,2.331,2.331,0,0,1-2.022-.764,6.473,6.473,0,0,1-.549-3.318v-7.207h-.744v-2.649h.744V143.8h2.943v2.916h.821v2.649H165.6v7.685a.7.7,0,0,0,.2.546.856.856,0,0,0,.594.185Zm5.225-.952v-6.8a1.8,1.8,0,0,0-.159-.879.632.632,0,0,0-1.033.007,1.794,1.794,0,0,0-.159.872v6.8a1.87,1.87,0,0,0,.156.89.643.643,0,0,0,1.039,0,1.87,1.87,0,0,0,.156-.89Zm-4.378-6.278a4.938,4.938,0,0,1,.918-3.26,4.155,4.155,0,0,1,5.577,0,4.906,4.906,0,0,1,.927,3.26v5.757a4.916,4.916,0,0,1-.927,3.264,4.144,4.144,0,0,1-5.577.007,4.957,4.957,0,0,1-.918-3.271Zm8.779,9.838V146.472h2.837v1.654a3.518,3.518,0,0,1,1-1.415,2.1,2.1,0,0,1,1.349-.492,1.8,1.8,0,0,1,1.624.843,4.844,4.844,0,0,1,.537,2.558v10.771h-2.994v-9.657a1.707,1.707,0,0,0-.156-.818.5.5,0,0,0-.467-.275.591.591,0,0,0-.564.376,3.27,3.27,0,0,0-.177,1.277v9.1Zm11.744-10.355v1.472H189.2v-1.472a1.809,1.809,0,0,0-.159-.883.632.632,0,0,0-1.033.007A1.8,1.8,0,0,0,187.843,150.036Zm0,6.791a1.876,1.876,0,0,0,.156.894.643.643,0,0,0,1.039,0,1.876,1.876,0,0,0,.157-.894v-1.621h3.044v1.1a4.916,4.916,0,0,1-.927,3.264,4.144,4.144,0,0,1-5.577.007,4.957,4.957,0,0,1-.918-3.271v-5.757a4.938,4.938,0,0,1,.918-3.26,4.155,4.155,0,0,1,5.577,0,4.906,4.906,0,0,1,.927,3.26v3.5h-4.4Z" transform="translate(-15.624 -158.661)" fill="#ffec00" stroke="#1b1918" stroke-width="0.5" fill-rule="evenodd"/>
    <g id="Group_4" data-name="Group 4" transform="translate(82.375 -14.86)">
      <path id="path30" d="M72.6,155.734a4.041,4.041,0,0,0-1.223,1.024,2.22,2.22,0,0,0-.284,1.212v1.411a2.63,2.63,0,0,0,.131,1.031.472.472,0,0,0,.46.25.737.737,0,0,0,.677-.449,2.8,2.8,0,0,0,.239-1.288Zm.14,5.945a4.282,4.282,0,0,1-1.159.955,2.582,2.582,0,0,1-1.236.308,2.181,2.181,0,0,1-1.839-.908,4,4,0,0,1-.677-2.442v-1.1a4.435,4.435,0,0,1,.552-2.3,4.271,4.271,0,0,1,1.728-1.552l.61-.319c1.255-.633,1.881-1.288,1.881-1.957v-.5a.956.956,0,0,0-.214-.63.669.669,0,0,0-.537-.261.641.641,0,0,0-.569.362,1.909,1.909,0,0,0-.217.984v.868H68.047v-.868a3.767,3.767,0,0,1,1.019-2.815,4.814,4.814,0,0,1,5.835-.036,4.458,4.458,0,0,1,.923,3.159v10.048H72.8Z" transform="translate(-67.833 -146.088)" fill="#ffec00" stroke="#1b1918" stroke-width="0.5" fill-rule="evenodd"/>
      <path id="path32" d="M86.808,162.678V148.759h3.069v2.363a5.486,5.486,0,0,1,1-1.929,1.8,1.8,0,0,1,1.309-.687v4.515a2.085,2.085,0,0,0-1.667.59,3.375,3.375,0,0,0-.476,2.081v6.987Z" transform="translate(-77.059 -146.088)" fill="#ffec00" stroke="#1b1918" stroke-width="0.5" fill-rule="evenodd"/>
      <path id="path34" d="M104.811,157.782v2.735c-.211.043-.425.076-.642.1a5.519,5.519,0,0,1-.648.036,2.63,2.63,0,0,1-2.188-.764,6.052,6.052,0,0,1-.594-3.318v-7.207h-.8v-2.649h.8V143.8h3.184v2.916h.888v2.649h-.945v7.685a.675.675,0,0,0,.22.546.976.976,0,0,0,.642.185Z" transform="translate(-82.927 -143.801)" fill="#ffec00" stroke="#1b1918" stroke-width="0.5" fill-rule="evenodd"/>
    </g>
  </g>
</svg>
